<svg xmlns="http://www.w3.org/2000/svg" version="1.1" xmlns:xlink="http://www.w3.org/1999/xlink" xmlns:svgjs="http://svgjs.com/svgjs" width="1920" height="1080" preserveAspectRatio="none" viewBox="0 0 1920 1080"><g mask="url(&quot;#SvgjsMask1412&quot;)" fill="none"><path d="M414.47 178.07 a213.31 213.31 0 1 0 426.62 0 a213.31 213.31 0 1 0 -426.62 0z" fill="rgba(101, 101, 101, 0.09)" class="triangle-float2"></path><path d="M1088.61 675.74 a330.82 330.82 0 1 0 661.64 0 a330.82 330.82 0 1 0 -661.64 0z" fill="rgba(101, 101, 101, 0.09)" class="triangle-float3"></path><path d="M1017.38 833.74 a262.78 262.78 0 1 0 525.56 0 a262.78 262.78 0 1 0 -525.56 0z" fill="rgba(101, 101, 101, 0.09)" class="triangle-float2"></path><path d="M1611.95 437.55 a186.09 186.09 0 1 0 372.18 0 a186.09 186.09 0 1 0 -372.18 0z" fill="rgba(101, 101, 101, 0.09)" class="triangle-float1"></path></g><defs><mask id="SvgjsMask1412"><rect width="1920" height="1080" fill="#ffffff"></rect></mask><style>
            @keyframes float1 {
                0%{transform: translate(0, 0)}
                50%{transform: translate(-10px, 0)}
                100%{transform: translate(0, 0)}
            }

            .triangle-float1 {
                animation: float1 5s infinite;
            }

            @keyframes float2 {
                0%{transform: translate(0, 0)}
                50%{transform: translate(-5px, -5px)}
                100%{transform: translate(0, 0)}
            }

            .triangle-float2 {
                animation: float2 4s infinite;
            }

            @keyframes float3 {
                0%{transform: translate(0, 0)}
                50%{transform: translate(0, -10px)}
                100%{transform: translate(0, 0)}
            }

            .triangle-float3 {
                animation: float3 6s infinite;
            }
        </style></defs></svg>